<svg width="512" height="512" viewBox="0 0 512 512" fill="none" xmlns="http://www.w3.org/2000/svg">
<g clip-path="url(#clip0_3_5)">
<g clip-path="url(#clip1_3_5)">
<rect width="511" height="512" fill="#DA6028"/>
<path d="M-6.49872 499.461C93.7875 450.375 128.01 396.243 140.413 355.177C154.253 309.346 147.115 259.254 162.056 256.144C171.623 254.151 183.395 272.856 205.342 313.859C271.896 438.195 273.403 471.214 301.758 479.784C341.48 491.798 365.967 435.279 427.024 436.497C471.869 437.394 508.157 468.863 532.615 496.836" stroke="#F5F3F1" stroke-opacity="0.5" stroke-width="0.454179" stroke-miterlimit="10"/>
<path d="M-8.9071 494.526C88.5554 446.498 124.744 393.88 138.13 355.392C153.088 312.382 146.024 264.878 160.809 262.631C170.315 261.186 181.865 279.571 203.065 319.168C267.492 439.488 269.49 472.919 297.627 481.065C337.58 492.471 360.999 431.863 422.704 431.038C424.049 431.02 425.374 431.02 426.7 431.056C470.48 432.274 507.285 463.758 532.267 491.559" stroke="#F5F3F1" stroke-opacity="0.5" stroke-width="0.454179" stroke-miterlimit="10"/>
<path d="M-11.3072 489.592C83.3241 442.624 121.45 391.611 135.854 355.611C151.908 315.484 144.944 270.507 159.569 269.122C169.016 268.225 180.347 286.291 200.793 324.483C263.08 440.78 265.558 474.729 293.508 482.346C333.655 493.289 356.055 428.418 418.395 425.577C419.763 425.515 421.126 425.452 422.489 425.459C466.993 425.705 505.712 457.839 531.927 486.281" stroke="#F5F3F1" stroke-opacity="0.5" stroke-width="0.454179" stroke-miterlimit="10"/>
<path d="M-13.7133 484.657C78.1003 438.738 118.103 389.451 133.573 355.829C150.679 318.651 143.865 276.141 158.323 275.614C167.717 275.27 178.814 293.011 198.517 329.795C258.671 442.083 261.639 476.479 289.385 483.627C329.745 494.025 351.113 424.947 414.081 420.117C415.479 420.009 416.875 419.906 418.267 419.861C463.491 418.417 504.127 451.918 531.575 481" stroke="#F5F3F1" stroke-opacity="0.5" stroke-width="0.454179" stroke-miterlimit="10"/>
<path d="M-16.1181 479.723C72.8718 434.865 114.691 387.406 131.292 356.047C149.38 321.883 142.794 281.781 157.08 282.106C166.421 282.317 177.288 299.731 196.244 335.109C254.263 443.381 257.723 478.225 285.262 484.907C325.848 494.755 346.179 421.45 409.769 414.65C411.197 414.501 412.626 414.351 414.059 414.259C460.001 411.505 502.553 445.994 531.239 475.721" stroke="#F5F3F1" stroke-opacity="0.5" stroke-width="0.454179" stroke-miterlimit="10"/>
<path d="M-18.5234 474.789C67.6442 430.99 111.191 385.485 129.016 356.267C147.982 325.175 141.722 287.426 155.839 288.596C165.131 289.368 175.763 306.451 193.972 340.423C249.859 444.678 253.813 479.965 281.142 486.188C321.951 495.479 341.249 417.93 405.459 409.194C406.918 408.995 408.377 408.794 409.848 408.665C456.506 404.614 500.983 440.077 530.898 470.448" stroke="#F5F3F1" stroke-opacity="0.5" stroke-width="0.454179" stroke-miterlimit="10"/>
<path d="M-20.9271 469.854C62.4153 427.111 107.578 383.687 126.733 356.485C146.439 328.499 140.659 293.078 154.592 295.088C163.838 296.422 174.234 313.176 191.694 345.736C245.448 445.974 249.899 481.701 277.017 487.468C318.057 496.196 336.315 414.389 401.144 403.734C402.639 403.488 404.125 403.237 405.628 403.068C452.999 397.729 499.4 434.161 530.548 465.169" stroke="#F5F3F1" stroke-opacity="0.5" stroke-width="0.454179" stroke-miterlimit="10"/>
<path d="M-23.332 464.92C57.1867 423.234 99.393 377.622 124.454 356.703C139.632 328.441 139.595 298.737 153.349 301.579C162.548 303.48 172.708 319.89 189.42 351.058C241.04 447.279 245.989 483.438 272.894 488.756C314.165 496.913 331.382 410.834 396.83 398.28C398.352 397.989 399.875 397.69 401.416 397.478C449.503 390.863 497.832 428.244 530.209 459.899" stroke="#F5F3F1" stroke-opacity="0.5" stroke-width="0.454179" stroke-miterlimit="10"/>
<path d="M-25.737 459.985C51.9594 419.356 95.3063 374.96 122.174 356.922C137.544 331.169 138.531 304.404 152.105 308.071C161.259 310.543 171.181 326.607 187.145 356.364C236.624 448.569 242.082 485.155 268.773 490.03C310.275 497.609 326.448 407.245 392.518 392.812C394.069 392.473 395.624 392.126 397.202 391.872C446.005 383.993 496.249 422.317 529.865 454.613" stroke="#F5F3F1" stroke-opacity="0.5" stroke-width="0.454179" stroke-miterlimit="10"/>
<path d="M-28.1422 455.051C46.7305 415.478 91.218 372.3 119.893 357.14C135.454 333.895 137.466 310.077 150.861 314.561C159.969 317.609 169.654 333.327 184.87 361.677C232.223 449.871 238.176 486.873 264.65 491.308C306.389 498.302 321.509 403.645 388.205 387.349C389.787 386.963 391.374 386.57 392.989 386.273C442.508 377.136 494.672 416.395 529.521 449.333" stroke="#F5F3F1" stroke-opacity="0.5" stroke-width="0.454179" stroke-miterlimit="10"/>
<path d="M-30.5464 450.116C41.5041 411.601 87.1306 369.64 117.613 357.36C133.365 336.625 136.4 315.759 149.616 321.053C158.677 324.683 168.128 340.05 182.596 366.986C227.814 451.16 234.271 488.583 260.527 492.586C302.502 498.985 316.567 400.028 383.892 381.885C385.505 381.45 387.124 381.014 388.773 380.671C439.012 370.287 493.095 410.472 529.177 444.052" stroke="#F5F3F1" stroke-opacity="0.5" stroke-width="0.454179" stroke-miterlimit="10"/>
<path d="M-32.9514 445.181C36.2724 407.725 83.0469 366.979 115.335 357.584C131.279 339.359 135.333 321.449 148.371 327.551C157.383 331.767 166.6 346.775 180.32 372.311C223.405 452.468 230.365 490.3 256.406 493.876C298.62 499.674 311.62 396.413 379.58 376.435C381.224 375.952 382.868 375.469 384.559 375.09C435.519 363.463 491.518 404.566 528.833 438.789" stroke="#F5F3F1" stroke-opacity="0.5" stroke-width="0.454179" stroke-miterlimit="10"/>
<path d="M-35.3567 440.246C31.0449 403.847 78.954 364.318 113.054 357.796C129.189 342.081 134.258 327.136 147.128 334.036C156.088 338.84 165.074 353.49 178.046 377.619C219.004 453.759 226.463 491.997 252.282 495.151C294.735 500.337 306.665 392.763 375.267 370.969C376.94 370.436 378.623 369.91 380.349 369.481C432.033 356.626 489.945 398.63 528.494 433.502" stroke="#F5F3F1" stroke-opacity="0.5" stroke-width="0.454179" stroke-miterlimit="10"/>
<path d="M-37.7568 435.312C25.8166 399.97 74.8662 361.659 110.775 358.017C127.1 344.812 133.181 332.831 145.885 340.528C154.791 345.924 163.548 360.209 175.773 382.932C214.592 455.057 222.561 493.698 248.16 496.432C290.855 500.997 301.706 389.104 370.953 365.508C372.657 364.927 374.374 364.356 376.131 363.883C428.54 349.796 488.364 392.715 528.155 428.223" stroke="#F5F3F1" stroke-opacity="0.5" stroke-width="0.454179" stroke-miterlimit="10"/>
<path d="M-40.1652 430.377C20.5874 396.092 70.7791 358.998 108.495 358.234C125.011 347.539 132.1 338.528 144.641 347.023C153.489 353.013 162.022 366.931 173.491 388.249C210.177 456.357 218.652 495.389 244.031 497.715C286.967 501.651 296.734 385.453 366.635 360.049C368.369 359.42 370.118 358.805 371.91 358.288C425.049 342.978 486.781 386.799 527.798 422.948" stroke="#F5F3F1" stroke-opacity="0.5" stroke-width="0.454179" stroke-miterlimit="10"/>
<path d="M-42.5703 425.443C15.3586 392.214 66.6908 356.337 106.214 358.452C122.923 350.267 131.013 344.228 143.398 353.51C152.184 360.097 160.494 373.649 171.224 393.56C205.775 457.65 214.755 497.072 239.915 498.993C283.092 502.289 291.768 381.775 362.328 354.593C364.092 353.914 365.874 353.256 367.709 352.696C421.572 336.16 485.21 380.875 527.46 417.661" stroke="#F5F3F1" stroke-opacity="0.5" stroke-width="0.454179" stroke-miterlimit="10"/>
<path d="M-44.9755 420.508C10.1312 388.338 62.6025 353.682 103.934 358.671C120.826 352.99 129.922 349.93 142.154 360.003C150.875 367.185 158.968 380.368 168.949 398.868C201.367 458.942 210.852 498.748 235.793 500.266C279.21 502.912 286.789 378.088 358.016 349.119C359.809 348.389 361.624 347.69 363.488 347.084C418.092 329.35 483.638 374.955 527.116 412.389" stroke="#F5F3F1" stroke-opacity="0.5" stroke-width="0.454179" stroke-miterlimit="10"/>
<path d="M-47.3805 415.568C4.90246 384.455 58.5143 351.011 101.653 358.885C118.744 355.717 128.826 355.626 140.907 366.487C149.563 374.26 157.44 387.081 166.672 404.181C196.957 460.237 206.947 500.423 231.669 501.548C275.328 503.539 281.804 374.407 353.703 343.667C355.525 342.887 357.374 342.145 359.273 341.495C414.617 322.545 482.056 369.037 526.772 407.118" stroke="#F5F3F1" stroke-opacity="0.5" stroke-width="0.454179" stroke-miterlimit="10"/>
<path d="M-49.7847 410.635C-0.326994 380.589 53.8589 367.125 99.3748 359.109C116.407 356.109 127.729 361.334 139.665 372.985C148.25 381.356 155.915 393.808 164.4 409.501C192.55 461.543 203.044 502.101 227.547 502.834C271.444 504.148 276.812 370.711 349.39 338.202C351.241 337.374 353.127 336.589 355.058 335.894C411.143 315.739 480.474 363.115 526.429 401.832" stroke="#F5F3F1" stroke-opacity="0.5" stroke-width="0.454179" stroke-miterlimit="10"/>
<path d="M-52.1897 405.702C-5.55122 376.703 49.3088 349.904 97.0953 359.324C114.334 362.723 126.626 367.033 138.421 379.474C146.933 388.443 154.387 400.524 162.125 414.812C188.144 462.838 199.138 503.763 223.424 504.111C267.558 504.745 271.813 367.009 345.076 332.739C346.958 331.86 348.877 331.037 350.845 330.295C407.714 309.052 478.902 357.194 526.09 396.554" stroke="#F5F3F1" stroke-opacity="0.5" stroke-width="0.454179" stroke-miterlimit="10"/>
<path d="M-54.5948 400.769C-10.7831 372.827 45.5897 345.126 94.8158 359.544C112.277 364.659 125.519 372.735 137.178 385.966C145.613 395.533 152.861 407.246 159.85 420.126C183.735 464.136 195.232 505.53 219.302 505.394C263.67 505.142 266.756 363.2 340.764 327.279C342.672 326.347 344.627 325.486 346.629 324.698C404.228 302.199 477.325 351.273 525.742 391.274" stroke="#F5F3F1" stroke-opacity="0.5" stroke-width="0.454179" stroke-miterlimit="10"/>
<path d="M-57 395.837C-16.0119 368.952 42.1621 340.379 92.5347 359.765C168.472 388.995 175.041 507.362 215.18 506.675C260.937 505.891 261.873 351.902 342.415 319.101C400.74 295.348 475.754 345.353 525.398 385.999" stroke="#F5F3F1" stroke-opacity="0.5" stroke-width="0.454179" stroke-miterlimit="10"/>
<path d="M533.114 -11.783C432.828 37.3025 398.605 91.4345 386.203 132.5C372.362 178.332 379.5 228.423 364.559 231.534C354.993 233.527 343.221 214.822 321.274 173.819C254.72 49.4823 253.213 16.4632 224.858 7.89335C185.136 -4.12055 160.649 52.3987 99.5913 51.1805C54.7466 50.2836 18.4583 18.8145 -6.00001 -9.1581" stroke="#F5F3F1" stroke-opacity="0.5" stroke-width="0.454179" stroke-miterlimit="10"/>
<path d="M535.523 -6.84859C438.06 41.1801 401.872 93.7979 388.486 132.285C373.527 175.296 380.592 222.8 365.806 225.046C356.301 226.492 344.75 208.107 323.551 168.509C259.124 48.1893 257.125 14.7591 228.988 6.61231C189.036 -4.79319 165.616 55.8144 103.912 56.6396C102.566 56.6575 101.242 56.6575 99.916 56.6217C56.1356 55.4034 19.33 23.9194 -5.6515 -3.88133" stroke="#F5F3F1" stroke-opacity="0.5" stroke-width="0.454179" stroke-miterlimit="10"/>
<path d="M537.923 -1.91422C443.291 45.0532 405.166 96.067 390.762 132.067C374.707 172.194 381.672 217.17 367.046 218.556C357.599 219.453 346.268 201.386 325.822 163.195C263.536 46.8978 261.057 12.9488 233.107 5.33122C192.961 -5.61089 170.561 59.26 108.221 62.1002C106.853 62.1629 105.49 62.2257 104.126 62.2182C59.6224 61.9731 20.9035 29.8389 -5.31125 1.39685" stroke="#F5F3F1" stroke-opacity="0.5" stroke-width="0.454179" stroke-miterlimit="10"/>
<path d="M540.329 3.0202C448.515 48.9397 408.512 98.227 393.042 131.849C375.937 169.026 382.75 211.536 368.292 212.064C358.899 212.408 347.801 194.667 328.098 157.882C267.945 45.5943 264.976 11.1984 237.231 4.05015C196.871 -6.34784 175.502 62.7309 112.534 67.5607C111.136 67.6684 109.74 67.7715 108.349 67.8164C63.1242 69.2604 22.4889 35.7599 -4.95908 6.67808" stroke="#F5F3F1" stroke-opacity="0.5" stroke-width="0.454179" stroke-miterlimit="10"/>
<path d="M542.734 7.95461C453.744 52.8128 411.925 100.272 395.323 131.63C377.236 165.795 383.822 205.896 369.536 205.572C360.195 205.361 349.327 187.946 330.371 152.568C272.353 44.2968 268.892 9.45246 241.353 2.7706C200.767 -7.0773 180.436 66.2274 116.846 73.0273C115.419 73.1768 113.99 73.3263 112.556 73.419C66.6142 76.1725 24.0625 41.6839 -4.62314 11.9563" stroke="#F5F3F1" stroke-opacity="0.5" stroke-width="0.454179" stroke-miterlimit="10"/>
<path d="M545.139 12.889C458.971 56.6873 415.424 102.193 397.6 131.411C378.633 162.503 384.894 200.252 370.777 199.081C361.485 198.31 350.852 181.227 332.644 147.254C276.757 42.9992 272.803 7.71241 245.473 1.48946C204.664 -7.80087 185.366 69.7476 121.156 78.4834C119.697 78.6822 118.238 78.884 116.767 79.0125C70.1093 83.0635 25.6323 47.6003 -4.2821 17.23" stroke="#F5F3F1" stroke-opacity="0.5" stroke-width="0.454179" stroke-miterlimit="10"/>
<path d="M547.543 17.8235C464.2 60.5665 419.037 103.991 399.882 131.192C380.176 159.179 385.957 194.6 372.023 192.589C362.778 191.256 352.381 174.502 334.922 141.942C281.168 41.7033 276.716 5.97702 249.599 0.209996C208.558 -8.51828 190.301 73.289 125.472 83.9441C123.977 84.1892 122.491 84.4403 120.987 84.6093C73.6162 89.9488 27.2153 53.5169 -3.93233 22.5083" stroke="#F5F3F1" stroke-opacity="0.5" stroke-width="0.454179" stroke-miterlimit="10"/>
<path d="M549.947 22.7579C469.429 64.444 427.222 110.056 402.162 130.974C386.983 159.237 387.021 188.94 373.267 186.099C364.068 184.197 353.907 167.787 337.195 136.62C285.576 40.3983 280.627 4.24002 253.721 -1.07856C212.451 -9.23581 195.233 76.8436 129.785 89.3972C128.264 89.6886 126.74 89.9876 125.199 90.1999C77.1123 96.8145 28.7831 59.4334 -3.59325 27.779" stroke="#F5F3F1" stroke-opacity="0.5" stroke-width="0.454179" stroke-miterlimit="10"/>
<path d="M552.352 27.6923C474.656 68.3216 431.309 112.718 404.441 130.756C389.071 156.509 388.085 183.274 374.51 179.607C365.356 177.134 355.435 161.071 339.47 131.314C289.991 39.1083 284.534 2.52249 257.842 -2.35213C216.34 -9.93088 200.168 80.4327 134.098 94.8652C132.546 95.2046 130.992 95.5514 129.413 95.8055C80.61 103.685 30.366 65.3604 -3.24962 33.0648" stroke="#F5F3F1" stroke-opacity="0.5" stroke-width="0.454179" stroke-miterlimit="10"/>
<path d="M554.758 32.6267C479.885 72.1992 435.397 115.377 406.722 130.538C391.161 153.782 389.149 177.601 375.754 173.116C366.646 170.068 356.961 154.35 341.745 126.001C294.392 37.8063 288.44 0.804892 261.965 -3.63025C220.227 -10.6245 205.106 84.0322 138.41 100.329C136.829 100.714 135.241 101.108 133.627 101.405C84.1079 110.541 31.9431 71.2829 -2.90576 38.3444" stroke="#F5F3F1" stroke-opacity="0.5" stroke-width="0.454179" stroke-miterlimit="10"/>
<path d="M557.162 37.5611C485.111 76.0768 439.485 118.038 409.002 130.318C393.25 151.053 390.216 171.919 377 166.624C367.938 162.995 358.488 147.628 344.019 120.691C298.801 36.5178 292.345 -0.905143 266.088 -4.90828C224.114 -11.3076 210.049 87.6497 142.724 105.792C141.111 106.227 139.492 106.664 137.843 107.006C87.6034 117.391 33.5207 77.2054 -2.56138 43.6257" stroke="#F5F3F1" stroke-opacity="0.5" stroke-width="0.454179" stroke-miterlimit="10"/>
<path d="M559.567 42.4971C490.343 79.9529 443.569 120.699 411.28 130.094C395.337 148.319 391.283 166.228 378.245 160.126C369.232 155.911 360.015 140.903 346.296 115.367C303.211 35.2098 296.251 -2.62266 270.209 -6.19828C227.996 -11.9967 214.995 91.2642 147.036 111.243C145.392 111.725 143.747 112.208 142.057 112.588C91.0966 124.215 35.0975 83.1115 -2.21784 48.889" stroke="#F5F3F1" stroke-opacity="0.5" stroke-width="0.454179" stroke-miterlimit="10"/>
<path d="M561.972 47.4314C495.571 83.8304 447.661 123.36 413.562 129.881C397.426 145.597 392.357 160.542 379.487 153.642C370.527 148.837 361.542 134.188 348.57 110.059C307.611 33.9183 300.152 -4.31933 274.334 -7.47341C231.881 -12.6589 219.95 94.9145 151.349 116.709C149.676 117.241 147.993 117.767 146.266 118.196C94.5826 131.052 36.6701 89.0474 -1.87839 54.1761" stroke="#F5F3F1" stroke-opacity="0.5" stroke-width="0.454179" stroke-miterlimit="10"/>
<path d="M564.372 52.3658C500.799 87.7079 451.749 126.019 415.841 129.66C399.516 142.865 393.435 154.846 380.73 147.15C371.824 141.753 363.067 127.469 350.843 104.746C312.024 32.6207 304.055 -6.02052 278.456 -8.75455C235.761 -13.3197 224.91 98.5738 155.662 122.17C153.958 122.751 152.242 123.322 150.484 123.794C98.0755 137.882 38.2511 94.9623 -1.53958 59.4543" stroke="#F5F3F1" stroke-opacity="0.5" stroke-width="0.454179" stroke-miterlimit="10"/>
<path d="M566.781 57.3002C506.028 91.5855 455.836 128.68 418.12 129.443C401.604 140.139 394.516 149.15 381.974 140.655C373.126 134.665 364.594 120.747 353.124 99.4289C316.438 31.3202 307.964 -7.71115 282.585 -10.0371C239.649 -13.973 229.882 102.224 159.981 127.629C158.247 128.258 156.498 128.872 154.706 129.39C101.566 144.7 39.8343 100.879 -1.18214 64.7295" stroke="#F5F3F1" stroke-opacity="0.5" stroke-width="0.454179" stroke-miterlimit="10"/>
<path d="M569.186 62.2347C511.257 95.4632 459.925 131.34 420.402 129.225C403.692 137.411 395.602 143.45 383.218 134.167C374.431 127.581 366.121 114.029 355.392 94.1178C320.84 30.0273 311.861 -9.3942 286.7 -11.315C243.524 -14.6111 234.848 105.903 164.287 133.085C162.524 133.764 160.742 134.421 158.906 134.982C105.043 151.518 41.4054 106.803 -0.844252 70.0168" stroke="#F5F3F1" stroke-opacity="0.5" stroke-width="0.454179" stroke-miterlimit="10"/>
<path d="M571.591 67.1691C516.484 99.3392 464.013 133.995 422.681 129.007C405.79 134.687 396.694 137.747 384.461 127.675C375.741 120.492 367.648 107.31 357.667 88.8097C325.248 28.7358 315.764 -11.0699 290.823 -12.5886C247.406 -15.2345 239.827 109.589 168.6 138.559C166.806 139.288 164.991 139.988 163.127 140.593C108.523 158.328 42.9779 112.722 -0.50052 75.2891" stroke="#F5F3F1" stroke-opacity="0.5" stroke-width="0.454179" stroke-miterlimit="10"/>
<path d="M573.996 72.1094C521.713 103.223 468.101 136.666 424.962 128.793C407.872 131.961 397.789 132.052 385.708 121.19C377.053 113.417 369.175 100.596 359.943 83.497C329.658 27.4411 319.668 -12.7458 294.947 -13.8699C251.287 -15.861 244.812 113.271 172.912 144.01C171.09 144.791 169.241 145.532 167.343 146.182C111.998 165.132 44.5594 118.64 -0.156796 80.5597" stroke="#F5F3F1" stroke-opacity="0.5" stroke-width="0.454179" stroke-miterlimit="10"/>
<path d="M576.4 77.0424C526.942 107.088 472.757 120.552 427.241 128.569C410.209 131.569 398.887 126.343 386.951 114.693C378.366 106.322 370.701 93.8696 362.216 78.177C334.065 26.1347 323.572 -14.4229 299.069 -15.1568C255.172 -16.4708 249.804 116.966 177.225 149.476C175.375 150.304 173.488 151.089 171.557 151.784C115.473 171.938 46.1414 124.563 0.18603 85.8454" stroke="#F5F3F1" stroke-opacity="0.5" stroke-width="0.454179" stroke-miterlimit="10"/>
<path d="M578.805 81.9752C532.167 110.975 477.307 137.774 429.52 128.354C412.282 124.954 399.99 120.645 388.194 108.203C379.683 99.2345 372.228 87.1533 364.491 72.8658C338.472 24.8401 327.477 -16.0852 303.191 -16.4335C259.058 -17.0673 254.802 120.669 181.539 154.939C179.657 155.818 177.738 156.64 175.771 157.383C118.902 178.626 47.7137 130.484 0.5251 91.1236" stroke="#F5F3F1" stroke-opacity="0.5" stroke-width="0.454179" stroke-miterlimit="10"/>
<path d="M581.21 86.9083C537.399 114.851 481.026 142.552 431.8 128.134C414.339 123.019 401.096 114.942 389.438 101.712C381.003 92.1446 373.754 80.4312 366.766 67.5518C342.88 23.5412 331.383 -17.852 307.314 -17.7159C262.946 -17.4648 259.859 124.478 185.852 160.398C183.943 161.331 181.988 162.192 179.986 162.98C122.388 185.478 49.2907 136.405 0.873393 96.4034" stroke="#F5F3F1" stroke-opacity="0.5" stroke-width="0.454179" stroke-miterlimit="10"/>
<path d="M583.615 91.8411C542.627 118.725 484.453 147.299 434.081 127.913C358.144 98.6829 351.574 -19.6847 311.435 -18.9971C265.678 -18.2138 264.743 135.775 184.2 168.576C125.875 192.329 50.8618 142.324 1.2172 101.679" stroke="#F5F3F1" stroke-opacity="0.5" stroke-width="0.454179" stroke-miterlimit="10"/>
<path d="M220.861 371.396C217.923 374.351 213.914 376 209.75 376C205.586 376 201.578 374.351 198.64 371.396L109.906 282.648C100.698 273.439 100.698 258.507 109.906 249.316L121.017 238.202C130.229 228.994 145.144 228.994 154.352 238.202L209.75 293.603L359.445 143.906C368.656 134.698 383.585 134.698 392.78 143.906L403.89 155.02C413.099 164.229 413.099 179.158 403.89 188.352L220.861 371.396Z" fill="#F5F3F1"/>
</g>
</g>
<defs>
<clipPath id="clip0_3_5">
<rect width="512" height="512" fill="white"/>
</clipPath>
<clipPath id="clip1_3_5">
<rect width="512" height="512" fill="white"/>
</clipPath>
</defs>
</svg>
