<svg width="512" height="512" viewBox="0 0 512 512" fill="none" xmlns="http://www.w3.org/2000/svg">
<g clip-path="url(#clip0_3_5)">
<g clip-path="url(#clip1_3_5)">
<rect x="75" y="112" width="379" height="296" fill="white"/>
<path d="M345.387 42.6667H166.613C88.96 42.6667 42.6667 88.96 42.6667 166.613V345.387C42.6667 423.04 88.96 469.333 166.613 469.333H345.387C423.04 469.333 469.333 423.04 469.333 345.387V166.613C469.333 88.96 423.04 42.6667 345.387 42.6667ZM212.693 317.867L164.693 365.867C161.493 369.067 157.44 370.56 153.387 370.56C149.333 370.56 145.067 369.067 142.08 365.867L126.08 349.867C119.68 343.68 119.68 333.44 126.08 327.253C132.267 321.067 142.293 321.067 148.693 327.253L153.387 331.947L190.08 295.253C196.267 289.067 206.293 289.067 212.693 295.253C218.88 301.44 218.88 311.68 212.693 317.867ZM212.693 168.533L164.693 216.533C161.493 219.733 157.44 221.227 153.387 221.227C149.333 221.227 145.067 219.733 142.08 216.533L126.08 200.533C119.68 194.347 119.68 184.107 126.08 177.92C132.267 171.733 142.293 171.733 148.693 177.92L153.387 182.613L190.08 145.92C196.267 139.733 206.293 139.733 212.693 145.92C218.88 152.107 218.88 162.347 212.693 168.533ZM374.613 354.56H262.613C253.867 354.56 246.613 347.307 246.613 338.56C246.613 329.813 253.867 322.56 262.613 322.56H374.613C383.573 322.56 390.613 329.813 390.613 338.56C390.613 347.307 383.573 354.56 374.613 354.56ZM374.613 205.227H262.613C253.867 205.227 246.613 197.973 246.613 189.227C246.613 180.48 253.867 173.227 262.613 173.227H374.613C383.573 173.227 390.613 180.48 390.613 189.227C390.613 197.973 383.573 205.227 374.613 205.227Z" fill="#529CC7"/>
</g>
</g>
<defs>
<clipPath id="clip0_3_5">
<rect width="512" height="512" fill="white"/>
</clipPath>
<clipPath id="clip1_3_5">
<rect width="512" height="512" fill="white"/>
</clipPath>
</defs>
</svg>
