<svg width="2503" height="2521" viewBox="0 0 2503 2521" fill="none" xmlns="http://www.w3.org/2000/svg">
<path d="M1581.52 1986.65C1954.08 1945.98 2305.31 1750.88 2498.7 1425.25C2407.13 2230.66 1510.99 2739.73 779.525 2427.18C712.123 2398.45 654.106 2350.68 614.29 2289.25C449.909 2035.56 395.873 1712.77 473.514 1419.84C695.343 1796.1 1146.4 2026.75 1581.52 1986.65Z" fill="black"/>
<path d="M459.849 1183.51C308.834 1526.49 302.293 1928.06 487.436 2258.53C-164.118 1776.76 -157.008 745.821 479.473 268.887C538.343 224.806 608.305 198.641 681.679 194.66C983.424 179.018 1290 293.63 1505.01 507.212C1068.17 511.478 642.717 786.49 459.849 1183.51Z" fill="black"/>
<path d="M1715.76 612.721C1495.35 310.692 1150.38 105.073 772.414 98.8159C1503.03 -227.103 2401.72 301.307 2499.56 1082.55C2508.66 1155.07 2496.71 1229.01 2464.01 1294.42C2327.5 1566.87 2074.38 1778.18 1778.61 1856.39C1995.32 1461.36 1968.59 978.74 1715.76 612.721Z" fill="black"/>
</svg>
