<svg width="512" height="512" viewBox="0 0 512 512" fill="none" xmlns="http://www.w3.org/2000/svg">
<g clip-path="url(#clip0_3_5)">
<g clip-path="url(#clip1_3_5)">
<rect width="511" height="512" fill="url(#paint0_radial_3_5)"/>
<path d="M222.477 392.317C218.851 395.965 213.903 398 208.763 398C203.623 398 198.675 395.965 195.049 392.317L85.5246 282.775C74.1583 271.409 74.1583 252.978 85.5246 241.633L99.2387 227.915C110.608 216.549 129.018 216.549 140.384 227.915L208.763 296.297L393.532 111.525C404.902 100.158 423.329 100.158 434.678 111.525L448.392 125.242C459.758 136.609 459.758 155.036 448.392 166.385L222.477 392.317Z" fill="url(#paint1_radial_3_5)"/>
<path d="M-2.49872 462.461C97.7875 413.375 132.01 359.243 144.413 318.177C158.253 272.346 151.115 222.254 166.056 219.144C175.623 217.151 187.395 235.856 209.342 276.859C275.896 401.195 277.403 434.214 305.758 442.784C345.48 454.798 369.967 398.279 431.024 399.497C475.869 400.394 512.157 431.863 536.615 459.836" stroke="#54A4F9" stroke-width="0.454179" stroke-miterlimit="10"/>
<path d="M-4.9071 457.526C92.5554 409.498 128.744 356.88 142.13 318.392C157.088 275.382 150.024 227.878 164.809 225.631C174.315 224.186 185.865 242.571 207.065 282.168C271.492 402.488 273.49 435.919 301.627 444.065C341.58 455.471 364.999 394.863 426.704 394.038C428.049 394.02 429.374 394.02 430.7 394.056C474.48 395.274 511.285 426.758 536.267 454.559" stroke="#54A4F9" stroke-width="0.454179" stroke-miterlimit="10"/>
<path d="M-7.30722 452.592C87.3241 405.624 125.45 354.611 139.854 318.611C155.908 278.484 148.944 233.507 163.569 232.122C173.016 231.225 184.347 249.291 204.793 287.483C267.08 403.78 269.558 437.729 297.508 445.346C337.655 456.289 360.055 391.418 422.395 388.577C423.763 388.515 425.126 388.452 426.489 388.459C470.993 388.705 509.712 420.839 535.927 449.281" stroke="#54A4F9" stroke-width="0.454179" stroke-miterlimit="10"/>
<path d="M-9.71326 447.657C82.1003 401.738 122.103 352.451 137.573 318.829C154.679 281.651 147.865 239.141 162.323 238.614C171.717 238.27 182.814 256.011 202.517 292.795C262.671 405.083 265.639 439.479 293.385 446.627C333.745 457.025 355.113 387.947 418.081 383.117C419.479 383.009 420.875 382.906 422.267 382.861C467.491 381.417 508.127 414.918 535.575 444" stroke="#54A4F9" stroke-width="0.454179" stroke-miterlimit="10"/>
<path d="M-12.1181 442.723C76.8718 397.865 118.691 350.406 135.292 319.047C153.38 284.883 146.794 244.781 161.08 245.106C170.421 245.317 181.288 262.731 200.244 298.109C258.263 406.381 261.723 441.225 289.262 447.907C329.848 457.755 350.179 384.45 413.769 377.65C415.197 377.501 416.626 377.351 418.059 377.259C464.001 374.505 506.553 408.994 535.239 438.721" stroke="#54A4F9" stroke-width="0.454179" stroke-miterlimit="10"/>
<path d="M-14.5234 437.789C71.6442 393.99 115.191 348.485 133.016 319.267C151.982 288.175 145.722 250.426 159.839 251.596C169.131 252.368 179.763 269.451 197.972 303.423C253.859 407.678 257.813 442.965 285.142 449.188C325.951 458.479 345.249 380.93 409.459 372.194C410.918 371.995 412.377 371.794 413.848 371.665C460.506 367.614 504.983 403.077 534.898 433.448" stroke="#54A4F9" stroke-width="0.454179" stroke-miterlimit="10"/>
<path d="M-16.9271 432.854C66.4153 390.111 111.578 346.687 130.733 319.485C150.439 291.499 144.659 256.078 158.592 258.088C167.838 259.422 178.234 276.176 195.694 308.736C249.448 408.974 253.899 444.701 281.017 450.468C322.057 459.196 340.315 377.389 405.144 366.734C406.639 366.488 408.125 366.237 409.628 366.068C456.999 360.729 503.4 397.161 534.548 428.169" stroke="#54A4F9" stroke-width="0.454179" stroke-miterlimit="10"/>
<path d="M-19.332 427.92C61.1867 386.234 103.393 340.622 128.454 319.703C143.632 291.441 143.595 261.737 157.349 264.579C166.548 266.48 176.708 282.89 193.42 314.058C245.04 410.279 249.989 446.438 276.894 451.756C318.165 459.913 335.382 373.834 400.83 361.28C402.352 360.989 403.875 360.69 405.416 360.478C453.503 353.863 501.832 391.244 534.209 422.899" stroke="#54A4F9" stroke-width="0.454179" stroke-miterlimit="10"/>
<path d="M-21.737 422.985C55.9594 382.356 99.3063 337.96 126.174 319.922C141.544 294.169 142.531 267.404 156.105 271.071C165.259 273.543 175.181 289.607 191.145 319.364C240.624 411.569 246.082 448.155 272.773 453.03C314.275 460.609 330.448 370.245 396.518 355.812C398.069 355.473 399.624 355.126 401.202 354.872C450.005 346.993 500.249 385.317 533.865 417.613" stroke="#54A4F9" stroke-width="0.454179" stroke-miterlimit="10"/>
<path d="M-24.1422 418.051C50.7305 378.478 95.218 335.3 123.893 320.14C139.454 296.895 141.466 273.077 154.861 277.561C163.969 280.609 173.654 296.327 188.87 324.677C236.223 412.871 242.176 449.873 268.65 454.308C310.389 461.302 325.509 366.645 392.205 350.349C393.787 349.963 395.374 349.57 396.989 349.273C446.508 340.136 498.672 379.395 533.521 412.333" stroke="#54A4F9" stroke-width="0.454179" stroke-miterlimit="10"/>
<path d="M-26.5464 413.116C45.5041 374.601 91.1306 332.64 121.613 320.36C137.365 299.625 140.4 278.759 153.616 284.053C162.677 287.683 172.128 303.05 186.596 329.986C231.814 414.16 238.271 451.583 264.527 455.586C306.502 461.985 320.567 363.028 387.892 344.885C389.505 344.45 391.124 344.014 392.773 343.671C443.012 333.287 497.095 373.472 533.177 407.052" stroke="#54A4F9" stroke-width="0.454179" stroke-miterlimit="10"/>
<path d="M-28.9514 408.181C40.2724 370.725 87.0469 329.979 119.335 320.584C135.279 302.359 139.333 284.449 152.371 290.551C161.383 294.767 170.6 309.775 184.32 335.311C227.405 415.468 234.365 453.3 260.406 456.876C302.62 462.674 315.62 359.413 383.58 339.435C385.224 338.952 386.868 338.469 388.559 338.09C439.519 326.463 495.518 367.566 532.833 401.789" stroke="#54A4F9" stroke-width="0.454179" stroke-miterlimit="10"/>
<path d="M-31.3567 403.246C35.0449 366.847 82.954 327.318 117.054 320.796C133.189 305.081 138.258 290.136 151.128 297.036C160.088 301.84 169.074 316.49 182.046 340.619C223.004 416.759 230.463 454.997 256.282 458.151C298.735 463.337 310.665 355.763 379.267 333.969C380.94 333.436 382.623 332.91 384.349 332.481C436.033 319.626 493.945 361.63 532.494 396.502" stroke="#54A4F9" stroke-width="0.454179" stroke-miterlimit="10"/>
<path d="M-33.7568 398.312C29.8166 362.97 78.8662 324.659 114.775 321.017C131.1 307.812 137.181 295.831 149.885 303.528C158.791 308.924 167.548 323.209 179.773 345.932C218.592 418.057 226.561 456.698 252.16 459.432C294.855 463.997 305.706 352.104 374.953 328.508C376.657 327.927 378.374 327.356 380.131 326.883C432.54 312.796 492.364 355.715 532.155 391.223" stroke="#54A4F9" stroke-width="0.454179" stroke-miterlimit="10"/>
<path d="M-36.1652 393.377C24.5874 359.092 74.7791 321.998 112.495 321.234C129.011 310.539 136.1 301.528 148.641 310.023C157.489 316.013 166.022 329.931 177.491 351.249C214.177 419.357 222.652 458.389 248.031 460.715C290.967 464.651 300.734 348.453 370.635 323.049C372.369 322.42 374.118 321.805 375.91 321.288C429.049 305.978 490.781 349.799 531.798 385.948" stroke="#54A4F9" stroke-width="0.454179" stroke-miterlimit="10"/>
<path d="M-38.5703 388.443C19.3586 355.214 70.6908 319.337 110.214 321.452C126.923 313.267 135.013 307.228 147.398 316.51C156.184 323.097 164.494 336.649 175.224 356.56C209.775 420.65 218.755 460.072 243.915 461.993C287.092 465.289 295.768 344.775 366.328 317.593C368.092 316.914 369.874 316.256 371.709 315.696C425.572 299.16 489.21 343.875 531.46 380.661" stroke="#54A4F9" stroke-width="0.454179" stroke-miterlimit="10"/>
<path d="M-40.9755 383.508C14.1312 351.338 66.6025 316.682 107.934 321.671C124.826 315.99 133.922 312.93 146.154 323.003C154.875 330.185 162.968 343.368 172.949 361.868C205.367 421.942 214.852 461.748 239.793 463.266C283.21 465.912 290.789 341.088 362.016 312.119C363.809 311.389 365.624 310.69 367.488 310.084C422.092 292.35 487.638 337.955 531.116 375.389" stroke="#54A4F9" stroke-width="0.454179" stroke-miterlimit="10"/>
<path d="M-43.3805 378.568C8.90246 347.455 62.5143 314.011 105.653 321.885C122.744 318.717 132.826 318.626 144.907 329.487C153.563 337.26 161.44 350.081 170.672 367.181C200.957 423.237 210.947 463.423 235.669 464.548C279.328 466.539 285.804 337.407 357.703 306.667C359.525 305.887 361.374 305.145 363.273 304.495C418.617 285.545 486.056 332.037 530.772 370.118" stroke="#54A4F9" stroke-width="0.454179" stroke-miterlimit="10"/>
<path d="M-45.7847 373.635C3.67301 343.589 57.8589 330.125 103.375 322.109C120.407 319.109 131.729 324.334 143.665 335.985C152.25 344.356 159.915 356.808 168.4 372.501C196.55 424.543 207.044 465.101 231.547 465.834C275.444 467.148 280.812 333.711 353.39 301.202C355.241 300.374 357.127 299.589 359.058 298.894C415.143 278.739 484.474 326.115 530.429 364.832" stroke="#54A4F9" stroke-width="0.454179" stroke-miterlimit="10"/>
<path d="M-48.1897 368.702C-1.55122 339.703 53.3088 312.904 101.095 322.324C118.334 325.723 130.626 330.033 142.421 342.474C150.933 351.443 158.387 363.524 166.125 377.812C192.144 425.838 203.138 466.763 227.424 467.111C271.558 467.745 275.813 330.009 349.076 295.739C350.958 294.86 352.877 294.037 354.845 293.295C411.714 272.052 482.902 320.194 530.09 359.554" stroke="#54A4F9" stroke-width="0.454179" stroke-miterlimit="10"/>
<path d="M-50.5948 363.769C-6.78306 335.827 49.5897 308.126 98.8158 322.544C116.277 327.659 129.519 335.735 141.178 348.966C149.613 358.533 156.861 370.246 163.85 383.126C187.735 427.136 199.232 468.53 223.302 468.394C267.67 468.142 270.756 326.2 344.764 290.279C346.672 289.347 348.627 288.486 350.629 287.698C408.228 265.199 481.325 314.273 529.742 354.274" stroke="#54A4F9" stroke-width="0.454179" stroke-miterlimit="10"/>
<path d="M-53 358.837C-12.0119 331.952 46.1621 303.379 96.5347 322.765C172.472 351.995 179.041 470.362 219.18 469.675C264.937 468.891 265.873 314.902 346.415 282.101C404.74 258.348 479.754 308.353 529.398 348.999" stroke="#54A4F9" stroke-width="0.454179" stroke-miterlimit="10"/>
<path d="M523.114 27.217C422.828 76.3025 388.605 130.435 376.203 171.5C362.362 217.332 369.5 267.423 354.559 270.534C344.993 272.527 333.221 253.822 311.274 212.819C244.72 88.4823 243.213 55.4632 214.858 46.8933C175.136 34.8795 150.649 91.3987 89.5913 90.1805C44.7466 89.2836 8.4583 57.8145 -16 29.8419" stroke="#54A4F9" stroke-width="0.454179" stroke-miterlimit="10"/>
<path d="M525.523 32.1514C428.06 80.1801 391.872 132.798 378.486 171.285C363.527 214.296 370.592 261.8 355.806 264.046C346.301 265.492 334.75 247.107 313.551 207.509C249.124 87.1893 247.125 53.7591 218.988 45.6123C179.036 34.2068 155.616 94.8144 93.9116 95.6396C92.5663 95.6575 91.2419 95.6575 89.916 95.6217C46.1356 94.4034 9.33 62.9194 -15.6515 35.1187" stroke="#54A4F9" stroke-width="0.454179" stroke-miterlimit="10"/>
<path d="M527.923 37.0858C433.291 84.0532 395.166 135.067 380.762 171.067C364.707 211.194 371.672 256.17 357.046 257.556C347.599 258.453 336.268 240.386 315.822 202.195C253.536 85.8978 251.057 51.9488 223.107 44.3312C182.961 33.3891 160.561 98.26 98.2206 101.1C96.8529 101.163 95.4896 101.226 94.1263 101.218C49.6224 100.973 10.9035 68.8389 -15.3113 40.3969" stroke="#54A4F9" stroke-width="0.454179" stroke-miterlimit="10"/>
<path d="M530.329 42.0202C438.515 87.9397 398.512 137.227 383.042 170.849C365.937 208.026 372.75 250.536 358.292 251.064C348.899 251.408 337.801 233.667 318.098 196.882C257.945 84.5943 254.976 50.1984 227.231 43.0501C186.871 32.6522 165.502 101.731 102.534 106.561C101.136 106.668 99.7403 106.772 98.3486 106.816C53.1242 108.26 12.4889 74.7599 -14.9591 45.6781" stroke="#54A4F9" stroke-width="0.454179" stroke-miterlimit="10"/>
<path d="M532.734 46.9546C443.744 91.8128 401.925 139.272 385.323 170.63C367.236 204.795 373.822 244.896 359.536 244.572C350.195 244.361 339.327 226.946 320.371 191.568C262.353 83.2968 258.892 48.4525 231.353 41.7706C190.767 31.9227 170.436 105.227 106.846 112.027C105.419 112.177 103.99 112.326 102.556 112.419C56.6142 115.172 14.0625 80.6839 -14.6231 50.9563" stroke="#54A4F9" stroke-width="0.454179" stroke-miterlimit="10"/>
<path d="M535.139 51.889C448.971 95.6873 405.424 141.193 387.6 170.411C368.633 201.503 374.894 239.252 360.777 238.081C351.485 237.31 340.852 220.227 322.644 186.254C266.757 81.9992 262.803 46.7124 235.473 40.4895C194.664 31.1991 175.366 108.748 111.156 117.483C109.697 117.682 108.238 117.884 106.767 118.013C60.1093 122.064 15.6323 86.6003 -14.2821 56.23" stroke="#54A4F9" stroke-width="0.454179" stroke-miterlimit="10"/>
<path d="M537.543 56.8235C454.2 99.5665 409.037 142.991 389.882 170.192C370.176 198.179 375.957 233.6 362.023 231.589C352.778 230.256 342.381 213.502 324.922 180.942C271.168 80.7033 266.716 44.977 239.599 39.21C198.558 30.4817 180.301 112.289 115.472 122.944C113.977 123.189 112.491 123.44 110.987 123.609C63.6162 128.949 17.2153 92.5169 -13.9323 61.5083" stroke="#54A4F9" stroke-width="0.454179" stroke-miterlimit="10"/>
<path d="M539.947 61.7579C459.429 103.444 417.222 149.056 392.162 169.974C376.983 198.237 377.021 227.94 363.267 225.099C354.068 223.197 343.907 206.787 327.195 175.62C275.576 79.3983 270.627 43.24 243.721 37.9214C202.451 29.7642 185.233 115.844 119.785 128.397C118.264 128.689 116.74 128.988 115.199 129.2C67.1123 135.814 18.7831 98.4334 -13.5933 66.779" stroke="#54A4F9" stroke-width="0.454179" stroke-miterlimit="10"/>
<path d="M542.352 66.6923C464.656 107.322 421.309 151.718 394.441 169.756C379.071 195.509 378.085 222.274 364.51 218.607C355.356 216.134 345.435 200.071 329.47 170.314C279.991 78.1083 274.534 41.5225 247.842 36.6479C206.34 29.0691 190.168 119.433 124.098 133.865C122.546 134.205 120.992 134.551 119.413 134.805C70.61 142.685 20.366 104.36 -13.2496 72.0648" stroke="#54A4F9" stroke-width="0.454179" stroke-miterlimit="10"/>
<path d="M544.758 71.6267C469.885 111.199 425.397 154.377 396.722 169.538C381.161 192.782 379.149 216.601 365.754 212.116C356.646 209.068 346.961 193.35 331.745 165.001C284.392 76.8063 278.44 39.8049 251.965 35.3698C210.227 28.3755 195.106 123.032 128.41 139.329C126.829 139.714 125.241 140.108 123.627 140.405C74.1079 149.541 21.9431 110.283 -12.9058 77.3444" stroke="#54A4F9" stroke-width="0.454179" stroke-miterlimit="10"/>
<path d="M547.162 76.5611C475.111 115.077 429.485 157.038 399.002 169.318C383.25 190.053 380.216 210.919 367 205.624C357.938 201.995 348.488 186.628 334.019 159.691C288.801 75.5178 282.345 38.0949 256.088 34.0917C214.114 27.6924 200.049 126.65 132.724 144.792C131.111 145.227 129.492 145.664 127.843 146.006C77.6034 156.391 23.5207 116.205 -12.5614 82.6257" stroke="#54A4F9" stroke-width="0.454179" stroke-miterlimit="10"/>
<path d="M549.567 81.4971C480.343 118.953 433.569 159.699 401.28 169.094C385.337 187.319 381.283 205.228 368.245 199.126C359.232 194.911 350.015 179.903 336.296 154.367C293.211 74.2098 286.251 36.3773 260.209 32.8017C217.996 27.0033 204.995 130.264 137.036 150.243C135.392 150.725 133.747 151.208 132.057 151.588C81.0966 163.215 25.0975 122.111 -12.2178 87.889" stroke="#54A4F9" stroke-width="0.454179" stroke-miterlimit="10"/>
<path d="M551.972 86.4314C485.571 122.83 437.661 162.36 403.562 168.881C387.426 184.597 382.357 199.542 369.487 192.642C360.527 187.837 351.542 173.188 338.57 149.059C297.611 72.9183 290.152 34.6807 264.334 31.5266C221.881 26.3411 209.95 133.915 141.349 155.709C139.676 156.241 137.993 156.767 136.266 157.196C84.5826 170.052 26.6701 128.047 -11.8784 93.1761" stroke="#54A4F9" stroke-width="0.454179" stroke-miterlimit="10"/>
<path d="M554.372 91.3658C490.799 126.708 441.749 165.019 405.841 168.66C389.516 181.865 383.435 193.846 370.73 186.15C361.824 180.753 353.067 166.469 340.843 143.746C302.024 71.6207 294.055 32.9795 268.456 30.2455C225.761 25.6803 214.91 137.574 145.662 161.17C143.958 161.751 142.242 162.322 140.484 162.794C88.0755 176.882 28.2511 133.962 -11.5396 98.4543" stroke="#54A4F9" stroke-width="0.454179" stroke-miterlimit="10"/>
<path d="M556.781 96.3002C496.028 130.586 445.836 167.68 408.12 168.443C391.604 179.139 384.516 188.15 371.974 179.655C363.126 173.665 354.594 159.747 343.124 138.429C306.438 70.3202 297.964 31.2888 272.585 28.9629C229.649 25.027 219.882 141.224 149.981 166.629C148.247 167.258 146.498 167.872 144.706 168.39C91.5661 183.7 29.8343 139.879 -11.1821 103.73" stroke="#54A4F9" stroke-width="0.454179" stroke-miterlimit="10"/>
<path d="M559.186 101.235C501.257 134.463 449.925 170.34 410.402 168.225C393.692 176.411 385.602 182.45 373.218 173.167C364.431 166.581 356.121 153.029 345.392 133.118C310.84 69.0273 301.861 29.6058 276.7 27.685C233.524 24.3889 224.848 144.903 154.287 172.085C152.524 172.764 150.742 173.421 148.906 173.982C95.0431 190.518 31.4054 145.803 -10.8443 109.017" stroke="#54A4F9" stroke-width="0.454179" stroke-miterlimit="10"/>
<path d="M561.591 106.169C506.484 138.339 454.013 172.995 412.681 168.007C395.79 173.687 386.694 176.747 374.461 166.675C365.741 159.492 357.648 146.31 347.667 127.81C315.248 67.7358 305.764 27.9301 280.823 26.4114C237.406 23.7655 229.827 148.589 158.6 177.559C156.806 178.288 154.991 178.988 153.127 179.593C98.523 197.328 32.9779 151.722 -10.5005 114.289" stroke="#54A4F9" stroke-width="0.454179" stroke-miterlimit="10"/>
<path d="M563.996 111.109C511.713 142.223 458.101 175.666 414.962 167.793C397.872 170.961 387.789 171.052 375.708 160.19C367.053 152.417 359.175 139.596 349.943 122.497C319.658 66.4411 309.668 26.2542 284.947 25.1301C241.287 23.139 234.812 152.271 162.912 183.01C161.09 183.791 159.241 184.532 157.343 185.182C101.998 204.132 34.5594 157.64 -10.1568 119.56" stroke="#54A4F9" stroke-width="0.454179" stroke-miterlimit="10"/>
<path d="M566.4 116.042C516.942 146.088 462.757 159.552 417.241 167.569C400.209 170.569 388.887 165.343 376.951 153.693C368.366 145.322 360.701 132.87 352.216 117.177C324.065 65.1347 313.572 24.5771 289.069 23.8432C245.172 22.5292 239.804 155.966 167.225 188.476C165.375 189.304 163.488 190.089 161.557 190.784C105.473 210.938 36.1414 163.563 -9.81397 124.845" stroke="#54A4F9" stroke-width="0.454179" stroke-miterlimit="10"/>
<path d="M568.805 120.975C522.167 149.975 467.307 176.774 419.52 167.354C402.282 163.954 389.99 159.645 378.194 147.203C369.683 138.234 362.228 126.153 354.491 111.866C328.472 63.8401 317.477 22.9148 293.191 22.5665C249.058 21.9327 244.802 159.669 171.539 193.939C169.657 194.818 167.738 195.64 165.771 196.383C108.902 217.626 37.7137 169.484 -9.4749 130.124" stroke="#54A4F9" stroke-width="0.454179" stroke-miterlimit="10"/>
<path d="M571.21 125.908C527.399 153.851 471.026 181.552 421.8 167.134C404.339 162.019 391.096 153.942 379.438 140.712C371.003 131.145 363.754 119.431 356.766 106.552C332.88 62.5412 321.383 21.148 297.314 21.2841C252.946 21.5352 249.859 163.478 175.852 199.398C173.943 200.331 171.988 201.192 169.986 201.98C112.388 224.478 39.2907 175.405 -9.12661 135.403" stroke="#54A4F9" stroke-width="0.454179" stroke-miterlimit="10"/>
<path d="M573.615 130.841C532.627 157.725 474.453 186.299 424.081 166.913C348.144 137.683 341.574 19.3153 301.435 20.0029C255.678 20.7862 254.743 174.775 174.2 207.576C115.875 231.329 40.8618 181.324 -8.7828 140.679" stroke="#54A4F9" stroke-width="0.454179" stroke-miterlimit="10"/>
<path d="M219.477 381.317C215.851 384.965 210.903 387 205.763 387C200.623 387 195.676 384.965 192.049 381.317L82.5247 271.775C71.1584 260.409 71.1584 241.977 82.5247 230.633L96.2388 216.915C107.609 205.549 126.018 205.549 137.385 216.915L205.763 285.297L390.532 100.525C401.902 89.1584 420.329 89.1584 431.678 100.525L445.392 114.242C456.758 125.609 456.758 144.036 445.392 155.385L219.477 381.317Z" fill="url(#paint2_linear_3_5)"/>
</g>
</g>
<defs>
<radialGradient id="paint0_radial_3_5" cx="0" cy="0" r="1" gradientTransform="matrix(-3.99218 292.5 -342.227 -4.68918 265.98 219.167)" gradientUnits="userSpaceOnUse">
<stop stop-color="#558FBF"/>
<stop offset="1"/>
</radialGradient>
<radialGradient id="paint1_radial_3_5" cx="0" cy="0" r="1" gradientUnits="userSpaceOnUse" gradientTransform="translate(266.958 250.5) rotate(90) scale(147.5 189.958)">
<stop/>
<stop offset="1" stop-color="#1E2C3C"/>
</radialGradient>
<linearGradient id="paint2_linear_3_5" x1="264" y1="17" x2="207" y2="375" gradientUnits="userSpaceOnUse">
<stop offset="0.346156" stop-color="#F4ED87"/>
<stop offset="1" stop-color="white" stop-opacity="0.9"/>
</linearGradient>
<clipPath id="clip0_3_5">
<rect width="512" height="512" fill="white"/>
</clipPath>
<clipPath id="clip1_3_5">
<rect width="512" height="512" fill="white"/>
</clipPath>
</defs>
</svg>
