<svg width="428" height="428" viewBox="0 0 428 428" fill="none" xmlns="http://www.w3.org/2000/svg">
<path d="M303.387 0.666687H124.613C46.96 0.666687 0.666656 46.96 0.666656 124.613V303.387C0.666656 381.04 46.96 427.333 124.613 427.333H303.387C381.04 427.333 427.333 381.04 427.333 303.387V124.613C427.333 46.96 381.04 0.666687 303.387 0.666687ZM170.693 275.867L122.693 323.867C119.493 327.067 115.44 328.56 111.387 328.56C107.333 328.56 103.067 327.067 100.08 323.867L84.08 307.867C77.68 301.68 77.68 291.44 84.08 285.253C90.2667 279.067 100.293 279.067 106.693 285.253L111.387 289.947L148.08 253.253C154.267 247.067 164.293 247.067 170.693 253.253C176.88 259.44 176.88 269.68 170.693 275.867ZM170.693 126.533L122.693 174.533C119.493 177.733 115.44 179.227 111.387 179.227C107.333 179.227 103.067 177.733 100.08 174.533L84.08 158.533C77.68 152.347 77.68 142.107 84.08 135.92C90.2667 129.733 100.293 129.733 106.693 135.92L111.387 140.613L148.08 103.92C154.267 97.7334 164.293 97.7334 170.693 103.92C176.88 110.107 176.88 120.347 170.693 126.533ZM332.613 312.56H220.613C211.867 312.56 204.613 305.307 204.613 296.56C204.613 287.813 211.867 280.56 220.613 280.56H332.613C341.573 280.56 348.613 287.813 348.613 296.56C348.613 305.307 341.573 312.56 332.613 312.56ZM332.613 163.227H220.613C211.867 163.227 204.613 155.973 204.613 147.227C204.613 138.48 211.867 131.227 220.613 131.227H332.613C341.573 131.227 348.613 138.48 348.613 147.227C348.613 155.973 341.573 163.227 332.613 163.227Z" fill="#529CC7"/>
</svg>
