<svg width="512" height="512" viewBox="0 0 512 512" fill="none" xmlns="http://www.w3.org/2000/svg">
<g clip-path="url(#clip0_3_5)">
<g clip-path="url(#clip1_3_5)">
<rect x="75" y="112" width="379" height="296" fill="white"/>
<path d="M345.387 42.6667H166.613C88.96 42.6667 42.6667 88.96 42.6667 166.613V345.387C42.6667 423.04 88.96 469.333 166.613 469.333H345.387C423.04 469.333 469.333 423.04 469.333 345.387V166.613C469.333 88.96 423.04 42.6667 345.387 42.6667ZM212.693 317.867L164.693 365.867C161.493 369.067 157.44 370.56 153.387 370.56C149.333 370.56 145.067 369.067 142.08 365.867L126.08 349.867C119.68 343.68 119.68 333.44 126.08 327.253C132.267 321.067 142.293 321.067 148.693 327.253L153.387 331.947L190.08 295.253C196.267 289.067 206.293 289.067 212.693 295.253C218.88 301.44 218.88 311.68 212.693 317.867ZM212.693 168.533L164.693 216.533C161.493 219.733 157.44 221.227 153.387 221.227C149.333 221.227 145.067 219.733 142.08 216.533L126.08 200.533C119.68 194.347 119.68 184.107 126.08 177.92C132.267 171.733 142.293 171.733 148.693 177.92L153.387 182.613L190.08 145.92C196.267 139.733 206.293 139.733 212.693 145.92C218.88 152.107 218.88 162.347 212.693 168.533ZM374.613 354.56H262.613C253.867 354.56 246.613 347.307 246.613 338.56C246.613 329.813 253.867 322.56 262.613 322.56H374.613C383.573 322.56 390.613 329.813 390.613 338.56C390.613 347.307 383.573 354.56 374.613 354.56ZM374.613 205.227H262.613C253.867 205.227 246.613 197.973 246.613 189.227C246.613 180.48 253.867 173.227 262.613 173.227H374.613C383.573 173.227 390.613 180.48 390.613 189.227C390.613 197.973 383.573 205.227 374.613 205.227Z" fill="black"/>
<rect x="89" y="112" width="347" height="296" fill="black"/>
<path d="M396.286 274.222C395.448 273.799 394.609 273.588 393.763 273.588C391.942 273.588 390.337 274.287 388.939 275.688L375.507 289.118C374.251 290.379 373.62 291.916 373.62 293.737V347.037C373.62 356.273 370.34 364.174 363.76 370.752C357.185 377.327 349.279 380.615 340.044 380.615H165.44C156.205 380.615 148.299 377.327 141.724 370.752C135.148 364.175 131.862 356.274 131.862 347.037V172.436C131.862 163.203 135.148 155.298 141.724 148.721C148.299 142.145 156.205 138.858 165.44 138.858H340.046C343.124 138.858 346.272 139.278 349.489 140.118C350.329 140.396 350.958 140.537 351.373 140.537C353.194 140.537 354.804 139.84 356.202 138.441L366.485 128.158C368.163 126.481 368.795 124.451 368.372 122.075C367.952 119.836 366.691 118.226 364.593 117.247C357.042 113.755 348.854 112 340.04 112H165.44C148.791 112 134.555 117.911 122.732 129.734C110.911 141.558 105 155.792 105 172.441V347.046C105 363.693 110.911 377.929 122.733 389.751C134.555 401.577 148.792 407.488 165.441 407.488H340.044C356.691 407.488 370.929 401.577 382.751 389.751C394.574 377.929 400.491 363.694 400.491 347.046V280.306C400.489 277.371 399.083 275.343 396.286 274.222Z" fill="#F4E861"/>
<path d="M448.965 153.762L425.878 130.675C422.52 127.318 418.53 125.639 413.912 125.639C409.3 125.639 405.307 127.318 401.952 130.675L266.17 266.456L210.98 211.262C207.621 207.903 203.633 206.226 199.018 206.226C194.401 206.226 190.415 207.903 187.055 211.262L163.971 234.346C160.614 237.704 158.933 241.692 158.933 246.311C158.933 250.927 160.614 254.914 163.971 258.273L254.211 348.512C257.569 351.872 261.558 353.548 266.173 353.548C270.788 353.548 274.776 351.873 278.135 348.512L448.963 177.685C452.318 174.328 454.001 170.339 454.001 165.723C454.001 161.107 452.323 157.119 448.965 153.762Z" fill="white"/>
</g>
</g>
<defs>
<clipPath id="clip0_3_5">
<rect width="512" height="512" fill="white"/>
</clipPath>
<clipPath id="clip1_3_5">
<rect width="512" height="512" fill="white"/>
</clipPath>
</defs>
</svg>
