<svg width="359" height="359" viewBox="0 0 359 359" fill="none" xmlns="http://www.w3.org/2000/svg">
<g clip-path="url(#clip0_109_4)">
<path d="M224.373 194.46C216.101 194.46 209.415 201.162 209.415 209.418V269.252C209.415 277.493 202.713 284.209 194.455 284.209H149.581V59.8367C149.581 47.0623 141.444 35.6492 129.209 31.4012L124.78 29.9194H194.455C202.713 29.9194 209.415 36.6353 209.415 44.8794V89.7539C209.415 98.0091 216.101 104.711 224.373 104.711C232.644 104.711 239.33 98.0091 239.33 89.7539V44.8794C239.33 20.1387 219.196 0.00488281 194.455 0.00488281H33.6559C33.0862 0.00488281 32.6096 0.259603 32.0564 0.333554C31.336 0.273298 30.6486 0.00488281 29.9173 0.00488281C13.418 0.00488281 0 13.4201 0 29.9194V299.167C0 311.941 8.13734 323.354 20.3721 327.602L110.392 357.61C113.443 358.552 116.478 359.001 119.666 359.001C136.166 359.001 149.581 345.583 149.581 329.084V314.127H194.455C219.196 314.127 239.33 293.993 239.33 269.252V209.418C239.33 201.162 232.644 194.46 224.373 194.46Z" fill="black"/>
<path d="M354.614 139.011L294.779 79.1788C290.504 74.9006 284.07 73.6133 278.477 75.9304C272.898 78.2503 269.247 83.709 269.247 89.7538V134.628H209.415C201.157 134.628 194.455 141.328 194.455 149.586C194.455 157.843 201.157 164.543 209.415 164.543H269.247V209.417C269.247 215.462 272.898 220.921 278.477 223.241C284.07 225.558 290.504 224.271 294.779 219.995L354.614 160.161C360.461 154.313 360.461 144.858 354.614 139.011Z" fill="black"/>
</g>
<defs>
<clipPath id="clip0_109_4">
<rect width="359" height="359" fill="white"/>
</clipPath>
</defs>
</svg>
