<svg id="Capa_1" enable-background="new 0 0 512 512" height="512" viewBox="0 0 512 512" width="512" xmlns="http://www.w3.org/2000/svg"><g><path d="m495.93 82.599h-163.09c-8.87 0-16.07 7.19-16.07 16.07v32.46c0 8.87 7.2 16.07 16.07 16.07h68.89l-140.96 140.95-59.76-59.76c-12.62-12.61-33.07-12.61-45.69 0l-150.61 150.63c-6.28 6.27-6.28 16.45 0 22.72l22.95 22.96c6.27 6.27 16.45 6.27 22.72 0l127.79-127.79 59.75 59.76c12.619 12.623 33.072 12.628 45.69 0l163.79-163.79v68.89c0 8.87 7.19 16.07 16.07 16.07h32.46c8.88 0 16.07-7.2 16.07-16.07v-163.1c0-8.88-7.19-16.07-16.07-16.07z"/></g></svg>