<svg width="100" height="100" viewBox="0 0 100 100" fill="none" xmlns="http://www.w3.org/2000/svg">
<path d="M50 2.5C23.8086 2.5 2.5 23.8086 2.5 50C2.5 76.1914 23.8086 97.5 50 97.5C76.1914 97.5 97.5 76.1914 97.5 50C97.5 23.8086 76.1914 2.5 50 2.5ZM50 18.1678C60.5357 18.1678 69.1012 26.724 69.1012 37.269C69.1012 47.8047 60.5357 56.3702 50 56.3702C39.4643 56.3702 30.8988 47.8047 30.8988 37.269C30.8988 26.724 39.4643 18.1678 50 18.1678ZM50 92.8091C37.1269 92.8091 25.5719 87.0896 17.7176 78.0677L18.8715 74.2236C21.3013 66.146 28.7317 60.6107 37.1659 60.6107H62.8341C71.2683 60.6107 78.6988 66.146 81.1285 74.2236L82.2824 78.0677C74.4281 87.0897 62.8731 92.8091 50 92.8091Z" fill="black"/>
</svg>
